<?xml version="1.0" encoding="UTF-8" standalone="no"?>
<!-- Created with Inkscape (http://www.inkscape.org/) -->

<svg
   xmlns:dc="http://purl.org/dc/elements/1.1/"
   xmlns:cc="http://creativecommons.org/ns#"
   xmlns:rdf="http://www.w3.org/1999/02/22-rdf-syntax-ns#"
   xmlns:svg="http://www.w3.org/2000/svg"
   xmlns="http://www.w3.org/2000/svg"
   xmlns:xlink="http://www.w3.org/1999/xlink"
   xmlns:sodipodi="http://sodipodi.sourceforge.net/DTD/sodipodi-0.dtd"
   xmlns:inkscape="http://www.inkscape.org/namespaces/inkscape"
   width="50.59375"
   height="50.625"
   id="svg2"
   version="1.1"
   inkscape:version="0.48.5 r10040"
   sodipodi:docname="rwText.svg"
   inkscape:export-filename="C:\Users\Joshua\Desktop\play.png"
   inkscape:export-xdpi="1.08"
   inkscape:export-ydpi="1.08">
  <defs
     id="defs4">
    <linearGradient
       id="linearGradient3634">
      <stop
         style="stop-color:#004c91;stop-opacity:1;"
         offset="0"
         id="stop3636" />
      <stop
         style="stop-color:#00d7ff;stop-opacity:1;"
         offset="1"
         id="stop3638" />
    </linearGradient>
    <linearGradient
       id="linearGradient3624">
      <stop
         id="stop3626"
         offset="0"
         style="stop-color:#ffffff;stop-opacity:1;" />
      <stop
         id="stop3628"
         offset="1"
         style="stop-color:#f1f1f1;stop-opacity:1;" />
    </linearGradient>
    <linearGradient
       id="linearGradient3616">
      <stop
         style="stop-color:#ffff00;stop-opacity:1;"
         offset="0"
         id="stop3618" />
      <stop
         style="stop-color:#ffff00;stop-opacity:0;"
         offset="1"
         id="stop3620" />
    </linearGradient>
    <inkscape:perspective
       sodipodi:type="inkscape:persp3d"
       inkscape:vp_x="0 : 526.18109 : 1"
       inkscape:vp_y="0 : 1000 : 0"
       inkscape:vp_z="744.09448 : 526.18109 : 1"
       inkscape:persp3d-origin="372.04724 : 350.78739 : 1"
       id="perspective10" />
    <inkscape:perspective
       id="perspective2824"
       inkscape:persp3d-origin="0.5 : 0.33333333 : 1"
       inkscape:vp_z="1 : 0.5 : 1"
       inkscape:vp_y="0 : 1000 : 0"
       inkscape:vp_x="0 : 0.5 : 1"
       sodipodi:type="inkscape:persp3d" />
    <linearGradient
       inkscape:collect="always"
       xlink:href="#linearGradient3634"
       id="linearGradient3640"
       x1="393.03571"
       y1="796.31158"
       x2="393.03571"
       y2="808.75488"
       gradientUnits="userSpaceOnUse" />
    <linearGradient
       inkscape:collect="always"
       xlink:href="#linearGradient3634"
       id="linearGradient3648"
       gradientUnits="userSpaceOnUse"
       x1="393.03571"
       y1="796.31158"
       x2="393.03571"
       y2="808.75488" />
    <linearGradient
       inkscape:collect="always"
       xlink:href="#linearGradient3624"
       id="linearGradient3004"
       gradientUnits="userSpaceOnUse"
       x1="418.56085"
       y1="792.28839"
       x2="418.56082"
       y2="793.81287"
       gradientTransform="matrix(16.203315,0,0,16.203315,-8514.1916,-10578.561)" />
    <linearGradient
       inkscape:collect="always"
       xlink:href="#linearGradient3634"
       id="linearGradient3010"
       gradientUnits="userSpaceOnUse"
       x1="393.03571"
       y1="796.31158"
       x2="393.03571"
       y2="808.75488"
       gradientTransform="matrix(29.851084,0,0,29.851084,-14012.542,-22174.21)" />
  </defs>
  <sodipodi:namedview
     id="base"
     pagecolor="#ffffff"
     bordercolor="#666666"
     borderopacity="1.0"
     inkscape:pageopacity="0.0"
     inkscape:pageshadow="2"
     inkscape:zoom="5.12"
     inkscape:cx="87.004396"
     inkscape:cy="-10.507931"
     inkscape:document-units="px"
     inkscape:current-layer="layer1"
     showgrid="false"
     inkscape:window-width="1920"
     inkscape:window-height="1138"
     inkscape:window-x="-8"
     inkscape:window-y="-8"
     inkscape:window-maximized="1"
     showguides="true"
     inkscape:guide-bbox="true"
     fit-margin-top="0"
     fit-margin-left="0"
     fit-margin-right="0"
     fit-margin-bottom="0" />
  <metadata
     id="metadata7">
    <rdf:RDF>
      <cc:Work
         rdf:about="">
        <dc:format>image/svg+xml</dc:format>
        <dc:type
           rdf:resource="http://purl.org/dc/dcmitype/StillImage" />
        <dc:title />
      </cc:Work>
    </rdf:RDF>
  </metadata>
  <g
     inkscape:label="Layer 1"
     inkscape:groupmode="layer"
     id="layer1"
     transform="translate(2177.4237,-2716.4826)">
    <path
       style="fill:#00d000;fill-opacity:1;fill-rule:nonzero;stroke:none"
       d="m -205.0625,-161.59375 c -1.7479,0 -3.50825,0.1628 -5.15625,0.5 -1.6482,0.3369 -3.20475,0.8598 -4.71875,1.5 -1.5145,0.6403 -2.93455,1.403 -4.28125,2.3125 -1.3464,0.9097 -2.6049,1.94865 -3.75,3.09375 -1.1451,1.1452 -2.1528,2.4033 -3.0625,3.75 -0.9097,1.3465 -1.70335,2.7981 -2.34375,4.3125 -0.6401,1.5141 -1.163,3.07055 -1.5,4.71875 -0.3372,1.6478 -0.5,3.377 -0.5,5.125 0,1.7479 0.1628,3.44575 0.5,5.09375 0.337,1.648 0.8599,3.2358 1.5,4.75 0.6404,1.5145 1.43405,2.966 2.34375,4.3125 0.9097,1.3466 1.9174,2.57365 3.0625,3.71875 1.1451,1.1452 2.4036,2.24665 3.75,3.15625 1.3467,0.9095 2.76675,1.6722 4.28125,2.3125 1.514,0.6402 3.07055,1.1004 4.71875,1.4375 1.648,0.3372 3.40835,0.53125 5.15625,0.53125 1.7478,0 3.44575,-0.19405 5.09375,-0.53125 1.6481,-0.3371 3.2359,-0.7973 4.75,-1.4375 1.5144,-0.6403 2.93465,-1.403 4.28125,-2.3125 1.3465,-0.9097 2.57375,-2.01115 3.71875,-3.15625 1.1452,-1.1451 2.2154,-2.37215 3.125,-3.71875 0.9096,-1.3465 1.70345,-2.798 2.34375,-4.3125 0.6402,-1.5142 1.13175,-3.102 1.46875,-4.75 0.337,-1.6481 0.5,-3.34585 0.5,-5.09375 0,-1.748 -0.163,-3.4772 -0.5,-5.125 -0.337,-1.6482 -0.82855,-3.20465 -1.46875,-4.71875 -0.6403,-1.5144 -1.43415,-2.966 -2.34375,-4.3125 -0.9096,-1.3466 -1.9798,-2.6048 -3.125,-3.75 -1.145,-1.1452 -2.37225,-2.18415 -3.71875,-3.09375 -1.3466,-0.9095 -2.76685,-1.6722 -4.28125,-2.3125 -1.5141,-0.6402 -3.1019,-1.1631 -4.75,-1.5 -1.648,-0.3372 -3.34595,-0.5 -5.09375,-0.5 z m -17.125,13.65625 14.46875,0 -0.0312,11.03125 c -0.01,2.7085 -0.32785,6.05125 -2.28125,9.53125 -1.9535,3.4799 -6.75,6.75 -6.75,6.75 l -1.6875,-2.34375 c 0,0 1.1483,-1.1405 2.125,-3.1875 0.9768,-2.047 1,-5.8125 1,-5.8125 l -6.84375,0 0,-15.96875 z m 19.75,0 14.46875,0 -0.0312,11.03125 c -0.01,2.7085 -0.32785,6.05125 -2.28125,9.53125 -1.9535,3.4799 -6.75,6.75 -6.75,6.75 l -1.6875,-2.34375 c 0,0 1.1483,-1.1405 2.125,-3.1875 0.9768,-2.047 1,-5.8125 1,-5.8125 l -6.84375,0 0,-15.96875 z"
       transform="translate(-1947.0487,2878.0763)"
       id="path3999"
       inkscape:connector-curvature="0" />
    <flowRoot
       xml:space="preserve"
       id="flowRoot3002"
       style="font-size:40px;font-style:normal;font-weight:normal;line-height:125%;letter-spacing:0px;word-spacing:0px;fill:#000000;fill-opacity:1;stroke:none;font-family:Sans"><flowRegion
         id="flowRegion3004"><rect
           id="rect3006"
           width="92.630997"
           height="127.63278"
           x="-195.86859"
           y="-100.33871" /></flowRegion><flowPara
         id="flowPara3008" /></flowRoot>  </g>
</svg>
